<svg xmlns="http://www.w3.org/2000/svg" viewBox="0 0 24 24" fill="none" stroke="currentColor" stroke-width="1.5" stroke-linecap="round" stroke-linejoin="round">
  <circle cx="12" cy="12" r="3.25"/>
  <path d="M19.4 15a1 1 0 0 0 .2 1.1l.1.1a1.8 1.8 0 0 1-2.6 2.6l-.1-.1a1 1 0 0 0-1.1-.2 1 1 0 0 0-.6.9V20a1.8 1.8 0 0 1-3.6 0v-.1a1 1 0 0 0-.6-.9 1 1 0 0 0-1.1.2l-.1.1a1.8 1.8 0 0 1-2.6-2.6l.1-.1a1 1 0 0 0 .2-1.1 1 1 0 0 0-.9-.6H4a1.8 1.8 0 0 1 0-3.6h.1a1 1 0 0 0 .9-.6 1 1 0 0 0-.2-1.1l-.1-.1a1.8 1.8 0 0 1 2.6-2.6l.1.1a1 1 0 0 0 1.1.2 1 1 0 0 0 .6-.9V4a1.8 1.8 0 0 1 3.6 0v.1a1 1 0 0 0 .6.9 1 1 0 0 0 1.1-.2l.1-.1a1.8 1.8 0 0 1 2.6 2.6l-.1.1a1 1 0 0 0-.2 1.1 1 1 0 0 0 .9.6H20a1.8 1.8 0 0 1 0 3.6h-.1a1 1 0 0 0-.9.6z"/>
</svg>
